<svg xmlns="http://www.w3.org/2000/svg" width="1200" height="675" viewBox="0 0 1200 675">
  <defs>
    <linearGradient id="bg" x1="0" y1="0" x2="1" y2="1">
      <stop offset="0" stop-color="#0f172a"/>
      <stop offset="1" stop-color="#111827"/>
    </linearGradient>
    <filter id="shadow" x="-20%" y="-20%" width="140%" height="140%">
      <feDropShadow dx="0" dy="10" stdDeviation="12" flood-color="#020617" flood-opacity="0.35"/>
    </filter>
  </defs>
  <rect width="1200" height="675" rx="28" fill="url(#bg)"/>
  <text x="60" y="86" fill="#e5e7eb" font-family="Inter, Arial, sans-serif" font-size="40" font-weight="700">Operator Dashboard Capabilities</text>
  <text x="60" y="126" fill="#94a3b8" font-family="Inter, Arial, sans-serif" font-size="20">Real-time screens for drilling, equipment and workover operations</text>

  <g filter="url(#shadow)" font-family="Inter, Arial, sans-serif">
    <rect x="75" y="205" width="310" height="135" rx="18" fill="#1e293b" stroke="#38bdf8"/>
    <circle cx="130" cy="272" r="32" fill="#38bdf820" stroke="#38bdf8" stroke-width="3"/>
    <path d="M 112 283 C 125 250 142 250 154 283" fill="none" stroke="#38bdf8" stroke-width="5" stroke-linecap="round"/>
    <text x="185" y="259" fill="#e5e7eb" font-size="24" font-weight="700">Live Gauges</text>
    <text x="185" y="292" fill="#94a3b8" font-size="18">WOB, RPM, torque, pressure</text>

    <rect x="445" y="205" width="310" height="135" rx="18" fill="#1e293b" stroke="#ef4444"/>
    <rect x="495" y="248" width="64" height="48" rx="8" fill="#ef444420" stroke="#ef4444" stroke-width="3"/>
    <path d="M 527 225 L 572 315 L 482 315 z" fill="none" stroke="#ef4444" stroke-width="5" stroke-linejoin="round"/>
    <text x="595" y="259" fill="#e5e7eb" font-size="24" font-weight="700">Alarms</text>
    <text x="595" y="292" fill="#94a3b8" font-size="18">Priority, acknowledge, history</text>

    <rect x="815" y="205" width="310" height="135" rx="18" fill="#1e293b" stroke="#4ade80"/>
    <path d="M 865 296 L 895 250 L 928 282 L 960 238" fill="none" stroke="#4ade80" stroke-width="6" stroke-linecap="round" stroke-linejoin="round"/>
    <text x="985" y="259" fill="#e5e7eb" font-size="24" font-weight="700">Trends</text>
    <text x="985" y="292" fill="#94a3b8" font-size="18">Historian and CSV export</text>

    <rect x="75" y="390" width="310" height="135" rx="18" fill="#1e293b" stroke="#fbbf24"/>
    <rect x="112" y="425" width="92" height="60" rx="10" fill="#fbbf2420" stroke="#fbbf24" stroke-width="3"/>
    <path d="M 130 485 L 130 505 M 185 485 L 185 505" stroke="#fbbf24" stroke-width="5" stroke-linecap="round"/>
    <text x="230" y="444" fill="#e5e7eb" font-size="24" font-weight="700">Equipment</text>
    <text x="230" y="477" fill="#94a3b8" font-size="18">HPU, HTD, PCT, CAT engine</text>

    <rect x="445" y="390" width="310" height="135" rx="18" fill="#1e293b" stroke="#a78bfa"/>
    <path d="M 510 420 L 510 498 M 485 445 L 535 445 M 485 475 L 535 475" stroke="#a78bfa" stroke-width="6" stroke-linecap="round"/>
    <text x="595" y="444" fill="#e5e7eb" font-size="24" font-weight="700">Workover</text>
    <text x="595" y="477" fill="#94a3b8" font-size="18">Torque-turn and connection records</text>

    <rect x="815" y="390" width="310" height="135" rx="18" fill="#1e293b" stroke="#22d3ee"/>
    <path d="M 884 428 L 924 428 L 944 455 L 924 482 L 884 482 L 864 455 z" fill="#22d3ee20" stroke="#22d3ee" stroke-width="4"/>
    <text x="985" y="444" fill="#e5e7eb" font-size="24" font-weight="700">Maintenance</text>
    <text x="985" y="477" fill="#94a3b8" font-size="18">PM tasks, downtime, calibration</text>
  </g>
</svg>
